<svg width="68" height="57" viewBox="0 0 68 57" fill="none" xmlns="http://www.w3.org/2000/svg">
<g clip-path="url(#clip0)">
<path d="M59.407 0H8.48672C3.80629 0 0 3.17832 0 7.08656V49.6059C0 53.5142 3.80629 56.6925 8.48672 56.6925H59.407C64.0875 56.6925 67.8938 53.5142 67.8938 49.6059V7.08656C67.8938 3.17832 64.0875 0 59.407 0Z" fill="#1976D2"/>
<path d="M57.2852 28.3468H46.6768V21.2602C46.6768 19.3043 48.5778 19.4886 50.9201 19.4886H55.1635V10.6304H46.6768C39.6455 10.6304 33.9467 15.389 33.9467 21.2602V28.3468H25.46V37.205H33.9467V56.693H46.6768V37.205H53.0418L57.2852 28.3468Z" fill="#FAFAFA"/>
</g>
<defs>
<clipPath id="clip0">
<rect width="67.8938" height="56.6925" fill="white"/>
</clipPath>
</defs>
</svg>
