<svg width="68" height="57" viewBox="0 0 68 57" fill="none" xmlns="http://www.w3.org/2000/svg">
<g clip-path="url(#clip0)">
<path d="M67.6897 16.6593C67.5244 13.642 66.9505 11.5814 66.1114 9.77862C65.2593 7.88717 63.9229 6.17392 62.1959 4.75782C60.5005 3.31577 58.4482 2.19941 56.1831 1.48747C54.0236 0.787203 51.5564 0.308393 47.9429 0.171282C44.3227 0.0328722 43.166 0 33.9469 0C24.7277 0 23.5711 0.0328722 19.9508 0.170417C16.3373 0.308393 13.8702 0.787636 11.7107 1.48833C9.44552 2.19984 7.39376 3.31577 5.69787 4.75782C3.9709 6.17349 2.63397 7.88674 1.78136 9.77819C0.942739 11.5814 0.369326 13.642 0.205123 16.6589C0.0393671 19.6823 0 20.6477 0 28.3458C0 36.0444 0.0393671 37.0102 0.205123 40.0332C0.369844 43.0501 0.943775 45.1107 1.78292 46.9139C2.63501 48.8049 3.97142 50.5186 5.69839 51.9342C7.39376 53.3763 9.44603 54.4922 11.7112 55.2037C13.8702 55.9049 16.3379 56.3837 19.9514 56.5216C23.5721 56.6596 24.7282 56.6921 33.9474 56.6921C43.1665 56.6921 44.3232 56.6596 47.9434 56.5216C51.5569 56.3837 54.0241 55.9049 56.1836 55.2037C60.7434 53.7314 64.3481 50.7214 66.1114 46.9139C66.951 45.1107 67.5244 43.0501 67.6897 40.0332C67.8544 37.0098 67.8938 36.0444 67.8938 28.3462C67.8938 20.6477 67.8544 19.6823 67.6897 16.6593ZM61.579 39.8009C61.4282 42.5648 60.875 44.0657 60.4104 45.0644C59.2682 47.5367 56.9285 49.4904 53.9676 50.4442C52.7716 50.8322 50.9742 51.2941 47.6642 51.42C44.0855 51.5566 43.0117 51.5852 33.9469 51.5852C24.8816 51.5852 23.8083 51.5566 20.229 51.42C16.9196 51.2941 15.1221 50.8322 13.9256 50.4442C12.4514 49.9896 11.1176 49.2651 10.0226 48.3235C8.89489 47.4091 8.02726 46.2958 7.48286 45.0644C7.01822 44.0657 6.46501 42.5648 6.31428 39.8009C6.15111 36.8121 6.11641 35.9155 6.11641 28.3467C6.11641 20.7774 6.15111 19.8812 6.31428 16.892C6.46553 14.1281 7.01822 12.6273 7.48286 11.6286C8.02726 10.3971 8.89541 9.28338 10.0226 8.36901C11.1176 7.42739 12.4514 6.70291 13.9261 6.24875C15.1221 5.86034 16.9196 5.39883 20.2295 5.27253C23.8088 5.13629 24.8826 5.10731 33.9469 5.10731H33.9464C43.0106 5.10731 44.0844 5.13629 47.6642 5.27297C50.9742 5.39883 52.7711 5.86077 53.9676 6.24875C55.4418 6.70334 56.7757 7.42783 57.8707 8.36901C58.9983 9.28338 59.866 10.3971 60.4099 11.6286C60.875 12.6273 61.4282 14.1281 61.579 16.892C61.7421 19.8808 61.7768 20.7774 61.7768 28.3462C61.7768 35.9155 61.7426 36.8117 61.579 39.8009Z" fill="url(#paint0_linear)"/>
<path d="M33.9465 13.7892C24.3192 13.7892 16.5146 20.3066 16.5146 28.3456C16.5146 36.3846 24.3192 42.9015 33.9465 42.9015C43.5743 42.9015 51.3789 36.3846 51.3789 28.3456C51.3789 20.3066 43.5743 13.7892 33.9465 13.7892ZM33.9465 37.7942C27.6975 37.7938 22.631 33.5636 22.6316 28.3452C22.6316 23.1271 27.6975 18.8966 33.947 18.8966C40.1965 18.897 45.2625 23.1271 45.2625 28.3452C45.2625 33.5636 40.196 37.7942 33.9465 37.7942Z" fill="url(#paint1_linear)"/>
<path d="M56.1411 13.2151C56.1411 15.0936 54.3173 16.6165 52.0676 16.6165C49.8175 16.6165 47.9937 15.0936 47.9937 13.2151C47.9937 11.3362 49.8175 9.81323 52.0676 9.81323C54.3173 9.81323 56.1411 11.3362 56.1411 13.2151Z" fill="url(#paint2_linear)"/>
</g>
<defs>
<linearGradient id="paint0_linear" x1="5.69753" y1="51.9345" x2="52.1183" y2="-3.65812" gradientUnits="userSpaceOnUse">
<stop stop-color="#FFD600"/>
<stop offset="0.5" stop-color="#FF0100"/>
<stop offset="1" stop-color="#D800B9"/>
</linearGradient>
<linearGradient id="paint1_linear" x1="21.6205" y1="38.6381" x2="41.8758" y2="14.3808" gradientUnits="userSpaceOnUse">
<stop stop-color="#FF6400"/>
<stop offset="0.5" stop-color="#FF0100"/>
<stop offset="1" stop-color="#FD0056"/>
</linearGradient>
<linearGradient id="paint2_linear" x1="49.187" y1="15.6201" x2="53.9203" y2="9.95161" gradientUnits="userSpaceOnUse">
<stop stop-color="#F30072"/>
<stop offset="1" stop-color="#E50097"/>
</linearGradient>
<clipPath id="clip0">
<rect width="67.8938" height="56.6925" fill="white"/>
</clipPath>
</defs>
</svg>
