<svg width="64" height="57" viewBox="0 0 64 57" fill="none" xmlns="http://www.w3.org/2000/svg">
<path d="M0 6C0 2.68629 2.68629 0 6 0H58C61.3137 0 64 2.68629 64 6V42C64 45.3137 61.3137 48 58 48H29.1156C28.0574 48 27.018 48.2799 26.1028 48.8113L16.9394 54.1319C14.7473 55.4048 12 53.8232 12 51.2883C12 49.4722 10.5278 48 8.71172 48H6C2.68629 48 0 45.3137 0 42V6Z" fill="black"/>
<g clip-path="url(#clip0)">
<path d="M34.2058 36.9745C34.4009 35.9247 35.0031 34.9525 35.9545 34.2086C35.9688 34.1974 35.9831 34.1862 35.9973 34.1748C39.4892 31.3972 38.65 26.2262 34.123 22.6251C29.5959 19.024 23.0952 18.3565 19.6033 21.1342C19.5878 21.1465 19.5723 21.159 19.5568 21.1715C18.623 21.9284 17.4013 22.4065 16.0826 22.5622C14.599 22.7373 13.1714 23.2841 12.0373 24.2025C9.3283 26.3966 9.31971 29.9526 12.0187 32.1544C12.6692 32.6851 13.4172 33.0927 14.2175 33.3774C17.0669 34.391 19.3345 36.1948 20.6088 38.4613C20.9667 39.098 21.4792 39.6929 22.1463 40.2103C24.9148 42.3578 29.3863 42.3504 32.1444 40.1946C33.2994 39.2918 33.9864 38.1554 34.2058 36.9745Z" fill="#FFFCFC"/>
<path d="M41.0006 14.3685C43.4105 12.4516 43.815 9.66528 41.904 8.14518C39.993 6.62507 36.4902 6.94679 34.0803 8.86375C31.6704 10.7807 31.266 13.567 33.177 15.0871C35.0879 16.6072 38.5907 16.2855 41.0006 14.3685Z" fill="#FFFCFC"/>
<path d="M22.6119 14.9213C25.0218 13.0043 25.4263 10.218 23.5153 8.69791C21.6043 7.1778 18.1015 7.49952 15.6916 9.41648C13.2817 11.3334 12.8773 14.1197 14.7883 15.6398C16.6993 17.16 20.2021 16.8382 22.6119 14.9213Z" fill="#FFFCFC"/>
<path d="M51.8844 23.0277C54.2943 21.1108 54.6987 18.3245 52.7878 16.8044C50.8768 15.2842 47.374 15.606 44.9641 17.5229C42.5542 19.4399 42.1498 22.2262 44.0607 23.7463C45.9717 25.2664 49.4745 24.9447 51.8844 23.0277Z" fill="#FFFCFC"/>
<path d="M50.9616 37.4767C53.3715 35.5597 53.7759 32.7734 51.8649 31.2533C49.9539 29.7332 46.4511 30.0549 44.0412 31.9719C41.6313 33.8889 41.2269 36.6752 43.1379 38.1953C45.0489 39.7154 48.5517 39.3937 50.9616 37.4767Z" fill="#FFFCFC"/>
</g>
<defs>
<clipPath id="clip0">
<rect width="44" height="35" fill="white" transform="translate(10 7)"/>
</clipPath>
</defs>
</svg>
