<svg width="26" height="24" viewBox="0 0 26 24" fill="none" xmlns="http://www.w3.org/2000/svg">
<g clip-path="url(#clip0)">
<path d="M1.39269 21.7018L7.97297 16.5805C9.31867 18.1796 11.2858 19.2579 13.6293 19.4549C18.6427 19.8756 23.4435 16.1395 24.3531 11.109C25.2627 6.07845 21.9365 1.65917 16.9233 1.23777C11.91 0.816375 7.10921 4.55253 6.19962 9.58304C5.80661 11.7566 6.20745 13.8141 7.18997 15.4863L0.583813 20.6274C0.261639 20.8779 0.181381 21.3218 0.404685 21.6181C0.627839 21.915 1.07051 21.9523 1.39269 21.7018ZM7.59613 9.70042C8.36574 5.44407 12.4282 2.28266 16.6699 2.6392C20.9115 2.99574 23.7262 6.73521 22.9566 10.9916C22.187 15.248 18.1245 18.4093 13.8829 18.0528C9.64117 17.6962 6.82651 13.9568 7.59613 9.70042Z" fill="#C2C0C0"/>
</g>
<defs>
<clipPath id="clip0">
<rect width="22" height="22" fill="white" transform="matrix(-0.17793 0.984043 -0.996486 -0.0837612 26 2)"/>
</clipPath>
</defs>
</svg>
