<svg width="68" height="57" viewBox="0 0 68 57" fill="none" xmlns="http://www.w3.org/2000/svg">
<g clip-path="url(#clip0)">
<path d="M33.9469 56.6925C52.6952 56.6925 67.8938 44.0014 67.8938 28.3462C67.8938 12.691 52.6952 0 33.9469 0C15.1985 0 0 12.691 0 28.3462C0 44.0014 15.1985 56.6925 33.9469 56.6925Z" fill="#039BE5"/>
<path d="M15.5334 27.7313L48.2639 17.1935C49.783 16.7353 51.1097 17.503 50.6175 19.4211L50.6203 19.4187L45.0474 41.3422C44.6344 42.8965 43.5283 43.2745 41.9809 42.5422L33.4942 37.3194L29.4007 40.6123C28.9481 40.9902 28.5662 41.3091 27.6892 41.3091L28.2918 34.0974L44.0205 22.2321C44.7051 21.7289 43.8677 21.4455 42.9653 21.9463L23.5279 32.1651L15.1487 29.9824C13.3297 29.5005 13.2901 28.4635 15.5334 27.7313Z" fill="white"/>
</g>
<defs>
<clipPath id="clip0">
<rect width="67.8938" height="56.6925" fill="white"/>
</clipPath>
</defs>
</svg>
